<?xml version="1.0" encoding="utf-8"?>
<svg version="1.1" xmlns:xlink="http://www.w3.org/1999/xlink" width="248px" height="248px" xmlns="http://www.w3.org/2000/svg">
  <g transform="matrix(1 0 0 1 -33 -877 )">
    <path d="M 248 35.4285714285714  C 248 15.8598214285714  232.1125 0  212.571428571429 0  L 35.4285714285714 0  C 15.8598214285714 0  0 15.8598214285714  0 35.4285714285714  L 0 212.571428571429  C 0 232.140178571429  15.8598214285714 248  35.4285714285714 248  L 212.571428571429 248  C 232.140178571429 248  248 232.140178571429  248 212.571428571429  L 248 35.4285714285714  Z M 189.636964285714 150.353321428571  C 193.473214285714 152.010714285714  195.576785714286 156.217857142857  194.635714285714 160.258928571429  L 188.203214285714 188.153392857143  C 187.299232142857 192.097589285714  183.83 194.857142857143  179.766785714286 194.857142857143  C 109.961428571429 194.857142857143  53.165 138.060714285714  53.165 68.2  C 53.165 64.1434285714286  55.924 60.6769642857143  59.86875 59.7746428571429  L 87.7576785714286 53.3366071428571  C 91.8231071428572 52.393875  95.9948214285714 54.5040892857143  97.6832142857143 58.3530714285714  L 110.564821428571 88.4009285714286  C 112.069982142857 91.9388035714286  111.053514285714 96.0568214285714  108.078178571429 98.487  L 93.1660714285714 110.714285714286  C 102.57125 129.873392857143  118.154285714286 145.450892857143  137.324464285714 154.861607142857  L 149.514107142857 139.965  C 151.918821428571 136.980696428571  156.073928571429 135.951607142857  159.61125 137.482785714286  L 189.636964285714 150.353321428571  Z " fill-rule="nonzero" fill="#006694" stroke="none" transform="matrix(1 0 0 1 33 877 )" />
  </g>
</svg>