<?xml version="1.0" encoding="utf-8"?>
<svg version="1.1" xmlns:xlink="http://www.w3.org/1999/xlink" width="263px" height="263px" xmlns="http://www.w3.org/2000/svg">
  <g transform="matrix(1 0 0 1 -33 -574 )">
    <path d="M 49.3125 0  L 213.6875 0  C 227.271267361111 0  238.885959201389 4.82280815972221  248.531575520833 14.4684244791667  C 258.177191840278 24.1140407986111  263 35.7287326388889  263 49.3125  L 263 213.6875  C 263 227.271267361111  258.177191840278 238.885959201389  248.531575520833 248.531575520833  C 238.885959201389 258.177191840278  227.271267361111 263  213.6875 263  L 181 263  L 181 161  L 215.570963541667 161  L 220.707682291667 122  L 181 122  L 181 96.056640625  C 181.497395833333 89.6642795138889  182.838650173611 84.8700086805555  185.521158854167 81.673828125  C 188.203667534722 78.4776475694444  193.425998263889 76.8795572916667  201.188151041667 76.8795572916667  L 222 76.7083333333333  L 222 41.2649739583333  C 214.886067708333 40.2376302083333  204.726779513889 39.7239583333333  191.599609375 39.7239583333333  C 176.075303819444 39.7239583333333  163.661566840278 44.2899305555555  154.3583984375 53.421875  C 145.055230034722 62.5538194444444  140.403645833333 75.4526909722222  140 92.1184895833333  L 140 122  L 107 122  L 107 161  L 140 161  L 140 263  L 49.3125 263  C 35.7287326388889 263  24.1140407986111 258.177191840278  14.4684244791667 248.531575520833  C 4.82280815972222 238.885959201389  0 227.271267361111  0 213.6875  L 0 49.3125  C 0 35.7287326388889  4.82280815972222 24.1140407986111  14.4684244791667 14.4684244791667  C 24.1140407986111 4.82280815972221  35.7287326388889 0  49.3125 0  Z " fill-rule="nonzero" fill="#39579a" stroke="none" transform="matrix(1 0 0 1 33 574 )" />
  </g>
</svg>