<?xml version="1.0" ?>
<svg xmlns="http://www.w3.org/2000/svg" viewBox="0 0 50 50">
    <path style="fill:#008ecf;" d="M 17.984375 5.9863281 A 1.0001 1.0001 0 0 0 17.839844 6 L 4 6 A 1.0001 1.0001 0 0 0 3 7 L 3 43 A 1.0001 1.0001 0 0 0 4 44 L 17.832031 44 A 1.0001 1.0001 0 0 0 18.158203 44 L 31.832031 44 A 1.0001 1.0001 0 0 0 32.158203 44 L 46 44 A 1.0001 1.0001 0 0 0 47 43 L 47 7 A 1.0001 1.0001 0 0 0 46 6 L 32.154297 6 A 1.0001 1.0001 0 0 0 31.984375 5.9863281 A 1.0001 1.0001 0 0 0 31.839844 6 L 18.154297 6 A 1.0001 1.0001 0 0 0 17.984375 5.9863281 z M 5 8 L 17 8 L 17 42 L 5 42 L 5 8 z M 19 8 L 31 8 L 31 42 L 19 42 L 19 8 z M 33 8 L 45 8 L 45 42 L 33 42 L 33 8 z" color="#000" font-weight="400" font-family="sans-serif" white-space="normal" overflow="visible"/>
</svg>